<svg width="672" height="492" viewBox="0 0 672 492" fill="none" xmlns="http://www.w3.org/2000/svg">
<path d="M60.125 469.688C60.125 460.729 59.7083 434.167 58.875 390C57.2083 325.417 56.375 269.583 56.375 222.5C56.375 176.458 57.2083 137.5 58.875 105.625L7.9375 99.0625C4.8125 86.3542 2.72917 75.8333 1.6875 67.5C0.645833 58.9583 0.229167 49.1667 0.4375 38.125C4.60417 32.9167 12.3125 27.3958 23.5625 21.5625C35.0208 15.5208 47.9375 10.5208 62.3125 6.5625C76.8958 2.60417 90.9583 0.625 104.5 0.625C128.667 0.625 148.354 6.04167 163.562 16.875C178.979 27.7083 187.104 43.3333 187.938 63.75C188.354 75.8333 188.562 86.1458 188.562 94.6875C188.562 134.062 186.896 181.562 183.562 237.188C180.229 292.604 175.75 358.125 170.125 433.75L167 477.812C150.542 486.979 131.792 491.562 110.75 491.562C92.8333 491.562 75.9583 488.333 60.125 481.875V469.688ZM276.375 236.875C276.375 188.75 277.208 146.042 278.875 108.75L236.688 102.188C233.979 94.4792 231.896 85.9375 230.438 76.5625C228.979 67.1875 228.25 58.125 228.25 49.375C228.25 42.7083 228.771 35.4167 229.812 27.5C257.104 17.9167 293.146 11.0417 337.938 6.875C382.729 2.70833 426.479 0.625 469.188 0.625C501.062 0.625 528.458 3.125 551.375 8.125C574.292 13.125 593.458 24.4792 608.875 42.1875C624.5 59.6875 632.312 85.9375 632.312 120.938C632.312 135.312 630.021 151.25 625.438 168.75C620.854 186.042 614.5 203.333 606.375 220.625C598.875 236.458 590.333 251.562 580.75 265.938C571.375 280.104 561.583 292.292 551.375 302.5C557.417 318.333 563.667 332.812 570.125 345.938C576.583 358.854 586.479 374.583 599.812 393.125L643.562 374.688C659.812 388.646 669.292 407.188 672 430.312C672 431.562 667 437.5 657 448.125C647.208 458.75 634.396 468.646 618.562 477.812C602.729 486.771 584.917 491.25 565.125 491.25C549.708 491.25 535.854 488.542 523.562 483.125C511.479 477.708 501.479 468.229 493.562 454.688C485.854 441.354 479.708 425.521 475.125 407.188C470.542 388.854 467.312 370.729 465.438 352.812L394.188 349.688C396.062 365.938 398.458 382.708 401.375 400C404.292 417.083 406.062 427.396 406.688 430.938C410.229 451.562 412.521 465.625 413.562 473.125C403.979 478.958 392.312 483.438 378.562 486.562C365.021 489.688 351.167 491.25 337 491.25C320.75 491.25 305.021 489.062 289.812 484.688C285.229 466.354 281.792 434.271 279.5 388.438C277.417 342.396 276.375 291.875 276.375 236.875ZM470.75 274.375C478.042 253.542 483.771 230.938 487.938 206.562C492.312 181.979 496.271 152.708 499.812 118.75C493.771 116.458 485.854 114.688 476.062 113.438C466.271 112.188 456.792 111.562 447.625 111.562C426.792 111.562 411.167 112.083 400.75 113.125C398.458 191.458 395.958 246.979 393.25 279.688L470.75 274.375Z" fill="black"/>
</svg>
